<svg class="icon" viewBox="0 0 1024 1024" version="1.1" xmlns="http://www.w3.org/2000/svg" width="200" height="200">
  <rect width="1024" height="1024" fill="#FDD835" rx="128" />
  <g transform="translate(512 512) scale(0.8) translate(-512 -512)" opacity="0.4">
    <path
      d="M198.4 0C142.08 0 96 46.08 96 102.4L96 921.6C96 977.92 142.08 1024 198.4 1024L812.8 1024C869.12 1024 915.2 977.92 915.2 921.6L915.2 307.2 608 0 198.4 0 198.4 0ZM556.8 358.4 556.8 76.8 838.4 358.4 556.8 358.4 556.8 358.4Z"
      fill="#2c2c2c" p-id="5825"></path>
  </g>
  <g transform="translate(512 512) scale(0.4) translate(-512 -200)">
    <path
      d="M1004.72704 466.4L557.62304 19.328a65.952 65.952 0 0 0-93.28 0L360.47104 123.2l78.176 78.176a96 96 0 0 1 128 128l127.968 127.968a96 96 0 1 1-45.248 45.248l-127.968-127.968a88.832 88.832 0 0 1-9.376 3.872v266.976a96 96 0 1 1-64 0v-266.976a96 96 0 0 1-54.624-131.904L315.22304 168.416 19.31904 464.288a65.952 65.952 0 0 0 0 93.28l447.136 447.072a65.952 65.952 0 0 0 93.28 0l444.992-444.992a65.952 65.952 0 0 0 0-93.28z"
      fill="#ffffff" />
  </g>
</svg>